<mxfile host="app.diagrams.net" agent="Mozilla/5.0 (X11; Linux x86_64) AppleWebKit/537.36 (KHTML, like Gecko) Chrome/134.0.0.0 Safari/537.36" version="26.2.14">
  <diagram name="Page-1" id="6sj2_sBwCkuErFWZnI-U">
    <mxGraphModel dx="2003" dy="1590" grid="1" gridSize="10" guides="1" tooltips="1" connect="1" arrows="1" fold="1" page="1" pageScale="1" pageWidth="850" pageHeight="1100" math="0" shadow="0">
      <root>
        <mxCell id="0" />
        <mxCell id="1" parent="0" />
        <mxCell id="Qzq5Au75-i9ZICAU_dAc-1" value="PE0" style="rounded=0;whiteSpace=wrap;html=1;fillColor=#ffe6cc;strokeColor=#d79b00;opacity=85;" vertex="1" parent="1">
          <mxGeometry x="-239.5" y="300" width="80" height="160" as="geometry" />
        </mxCell>
        <mxCell id="Qzq5Au75-i9ZICAU_dAc-2" value="PE1" style="rounded=0;whiteSpace=wrap;html=1;fillColor=#ffe6cc;strokeColor=#d79b00;opacity=60;" vertex="1" parent="1">
          <mxGeometry x="-139.5" y="300" width="80" height="160" as="geometry" />
        </mxCell>
        <mxCell id="Qzq5Au75-i9ZICAU_dAc-3" value="PE2" style="rounded=0;whiteSpace=wrap;html=1;fillColor=#ffe6cc;strokeColor=#d79b00;opacity=85;" vertex="1" parent="1">
          <mxGeometry x="-39.5" y="300" width="80" height="160" as="geometry" />
        </mxCell>
        <mxCell id="Qzq5Au75-i9ZICAU_dAc-4" value="PE3" style="rounded=0;whiteSpace=wrap;html=1;opacity=60;fillColor=#ffe6cc;strokeColor=#d79b00;" vertex="1" parent="1">
          <mxGeometry x="60.5" y="300" width="80" height="160" as="geometry" />
        </mxCell>
        <mxCell id="Qzq5Au75-i9ZICAU_dAc-5" value="PE4" style="rounded=0;whiteSpace=wrap;html=1;fillColor=#ffe6cc;strokeColor=#d79b00;opacity=85;" vertex="1" parent="1">
          <mxGeometry x="160.5" y="300" width="80" height="160" as="geometry" />
        </mxCell>
        <mxCell id="Qzq5Au75-i9ZICAU_dAc-6" value="PE5" style="rounded=0;whiteSpace=wrap;html=1;opacity=60;fillColor=#ffe6cc;strokeColor=#d79b00;" vertex="1" parent="1">
          <mxGeometry x="260.5" y="300" width="80" height="160" as="geometry" />
        </mxCell>
        <mxCell id="Qzq5Au75-i9ZICAU_dAc-7" value="PE6" style="rounded=0;whiteSpace=wrap;html=1;fillColor=#ffe6cc;strokeColor=#d79b00;opacity=85;" vertex="1" parent="1">
          <mxGeometry x="360.5" y="300" width="80" height="160" as="geometry" />
        </mxCell>
        <mxCell id="Qzq5Au75-i9ZICAU_dAc-8" value="PE7" style="rounded=0;whiteSpace=wrap;html=1;opacity=60;fillColor=#ffe6cc;strokeColor=#d79b00;" vertex="1" parent="1">
          <mxGeometry x="460.5" y="300" width="80" height="160" as="geometry" />
        </mxCell>
        <mxCell id="Qzq5Au75-i9ZICAU_dAc-58" style="edgeStyle=orthogonalEdgeStyle;rounded=0;orthogonalLoop=1;jettySize=auto;html=1;entryX=0.633;entryY=1;entryDx=0;entryDy=0;entryPerimeter=0;fillColor=#60a917;strokeColor=#2D7600;" edge="1" parent="1" source="Qzq5Au75-i9ZICAU_dAc-9" target="Qzq5Au75-i9ZICAU_dAc-91">
          <mxGeometry relative="1" as="geometry">
            <mxPoint x="480" y="190" as="targetPoint" />
            <Array as="points">
              <mxPoint x="-220" y="160" />
              <mxPoint x="470" y="160" />
              <mxPoint x="470" y="190" />
              <mxPoint x="469" y="190" />
            </Array>
          </mxGeometry>
        </mxCell>
        <mxCell id="Qzq5Au75-i9ZICAU_dAc-9" value="Search Memory" style="rounded=0;whiteSpace=wrap;html=1;fillColor=#dae8fc;strokeColor=#6c8ebf;" vertex="1" parent="1">
          <mxGeometry x="-250" y="50" width="80" height="60" as="geometry" />
        </mxCell>
        <mxCell id="Qzq5Au75-i9ZICAU_dAc-26" style="edgeStyle=orthogonalEdgeStyle;rounded=0;orthogonalLoop=1;jettySize=auto;html=1;entryX=0.625;entryY=1;entryDx=0;entryDy=0;entryPerimeter=0;fillColor=#0050ef;strokeColor=#001DBC;" edge="1" parent="1" target="Qzq5Au75-i9ZICAU_dAc-76">
          <mxGeometry relative="1" as="geometry">
            <mxPoint x="-230" y="110" as="sourcePoint" />
            <mxPoint x="-30" y="180" as="targetPoint" />
            <Array as="points">
              <mxPoint x="-230" y="150" />
              <mxPoint x="-30" y="150" />
            </Array>
          </mxGeometry>
        </mxCell>
        <mxCell id="Qzq5Au75-i9ZICAU_dAc-27" style="edgeStyle=orthogonalEdgeStyle;rounded=0;orthogonalLoop=1;jettySize=auto;html=1;entryX=0.625;entryY=1;entryDx=0;entryDy=0;entryPerimeter=0;fillColor=#0050ef;strokeColor=#001DBC;" edge="1" parent="1" target="Qzq5Au75-i9ZICAU_dAc-88">
          <mxGeometry relative="1" as="geometry">
            <mxPoint x="-230" y="110" as="sourcePoint" />
            <mxPoint x="370" y="180" as="targetPoint" />
            <Array as="points">
              <mxPoint x="-230" y="150" />
              <mxPoint x="370" y="150" />
            </Array>
          </mxGeometry>
        </mxCell>
        <mxCell id="Qzq5Au75-i9ZICAU_dAc-28" style="edgeStyle=orthogonalEdgeStyle;rounded=0;orthogonalLoop=1;jettySize=auto;html=1;exitX=0.5;exitY=1;exitDx=0;exitDy=0;entryX=0.625;entryY=1;entryDx=0;entryDy=0;entryPerimeter=0;fillColor=#0050ef;strokeColor=#001DBC;" edge="1" parent="1" target="Qzq5Au75-i9ZICAU_dAc-82">
          <mxGeometry relative="1" as="geometry">
            <mxPoint x="-230" y="110" as="sourcePoint" />
            <mxPoint x="170" y="180" as="targetPoint" />
            <Array as="points">
              <mxPoint x="-230" y="150" />
              <mxPoint x="170" y="150" />
            </Array>
          </mxGeometry>
        </mxCell>
        <mxCell id="Qzq5Au75-i9ZICAU_dAc-37" style="edgeStyle=orthogonalEdgeStyle;rounded=0;orthogonalLoop=1;jettySize=auto;html=1;entryX=0.625;entryY=1;entryDx=0;entryDy=0;entryPerimeter=0;fillColor=#60a917;strokeColor=#2D7600;" edge="1" parent="1" target="Qzq5Au75-i9ZICAU_dAc-73">
          <mxGeometry relative="1" as="geometry">
            <mxPoint x="-220" y="120" as="sourcePoint" />
            <mxPoint x="-120" y="190" as="targetPoint" />
            <Array as="points">
              <mxPoint x="-220" y="160" />
              <mxPoint x="-130" y="160" />
            </Array>
          </mxGeometry>
        </mxCell>
        <mxCell id="Qzq5Au75-i9ZICAU_dAc-38" style="edgeStyle=orthogonalEdgeStyle;rounded=0;orthogonalLoop=1;jettySize=auto;html=1;entryX=0.625;entryY=1;entryDx=0;entryDy=0;entryPerimeter=0;fillColor=#60a917;strokeColor=#2D7600;" edge="1" parent="1" target="Qzq5Au75-i9ZICAU_dAc-79">
          <mxGeometry relative="1" as="geometry">
            <mxPoint x="-220" y="120" as="sourcePoint" />
            <mxPoint x="80" y="190" as="targetPoint" />
            <Array as="points">
              <mxPoint x="-220" y="160" />
              <mxPoint x="70" y="160" />
            </Array>
          </mxGeometry>
        </mxCell>
        <mxCell id="Qzq5Au75-i9ZICAU_dAc-39" style="edgeStyle=orthogonalEdgeStyle;rounded=0;orthogonalLoop=1;jettySize=auto;html=1;entryX=0.625;entryY=1;entryDx=0;entryDy=0;entryPerimeter=0;fillColor=#60a917;strokeColor=#2D7600;" edge="1" parent="1" target="Qzq5Au75-i9ZICAU_dAc-85">
          <mxGeometry relative="1" as="geometry">
            <mxPoint x="-218" y="110" as="sourcePoint" />
            <mxPoint x="270" y="190" as="targetPoint" />
            <Array as="points">
              <mxPoint x="-220" y="110" />
              <mxPoint x="-220" y="160" />
              <mxPoint x="270" y="160" />
            </Array>
          </mxGeometry>
        </mxCell>
        <mxCell id="Qzq5Au75-i9ZICAU_dAc-67" value="&lt;font style=&quot;font-size: 6px;&quot;&gt;Port1&lt;/font&gt;" style="edgeLabel;html=1;align=center;verticalAlign=middle;resizable=0;points=[];" vertex="1" connectable="0" parent="Qzq5Au75-i9ZICAU_dAc-39">
          <mxGeometry x="-0.9313" relative="1" as="geometry">
            <mxPoint y="3" as="offset" />
          </mxGeometry>
        </mxCell>
        <mxCell id="Qzq5Au75-i9ZICAU_dAc-42" style="edgeStyle=orthogonalEdgeStyle;rounded=0;orthogonalLoop=1;jettySize=auto;html=1;entryX=0.375;entryY=1;entryDx=0;entryDy=0;entryPerimeter=0;fillColor=#fa6800;strokeColor=#C73500;" edge="1" parent="1" target="Qzq5Au75-i9ZICAU_dAc-76">
          <mxGeometry relative="1" as="geometry">
            <mxPoint x="-210" y="130" as="sourcePoint" />
            <mxPoint x="-10" y="200" as="targetPoint" />
            <Array as="points">
              <mxPoint x="-210" y="170" />
              <mxPoint x="-10" y="170" />
            </Array>
          </mxGeometry>
        </mxCell>
        <mxCell id="Qzq5Au75-i9ZICAU_dAc-43" style="edgeStyle=orthogonalEdgeStyle;rounded=0;orthogonalLoop=1;jettySize=auto;html=1;entryX=0.375;entryY=1;entryDx=0;entryDy=0;entryPerimeter=0;fillColor=#fa6800;strokeColor=#C73500;" edge="1" parent="1" target="Qzq5Au75-i9ZICAU_dAc-88">
          <mxGeometry relative="1" as="geometry">
            <mxPoint x="-210" y="130" as="sourcePoint" />
            <mxPoint x="390" y="200" as="targetPoint" />
            <Array as="points">
              <mxPoint x="-210" y="170" />
              <mxPoint x="390" y="170" />
            </Array>
          </mxGeometry>
        </mxCell>
        <mxCell id="Qzq5Au75-i9ZICAU_dAc-44" style="edgeStyle=orthogonalEdgeStyle;rounded=0;orthogonalLoop=1;jettySize=auto;html=1;exitX=0.5;exitY=1;exitDx=0;exitDy=0;entryX=0.375;entryY=1;entryDx=0;entryDy=0;entryPerimeter=0;fillColor=#fa6800;strokeColor=#C73500;" edge="1" parent="1" source="Qzq5Au75-i9ZICAU_dAc-9" target="Qzq5Au75-i9ZICAU_dAc-82">
          <mxGeometry relative="1" as="geometry">
            <mxPoint x="-210" y="130" as="sourcePoint" />
            <mxPoint x="190" y="200" as="targetPoint" />
            <Array as="points">
              <mxPoint x="-210" y="170" />
              <mxPoint x="190" y="170" />
            </Array>
          </mxGeometry>
        </mxCell>
        <mxCell id="Qzq5Au75-i9ZICAU_dAc-53" style="edgeStyle=orthogonalEdgeStyle;rounded=0;orthogonalLoop=1;jettySize=auto;html=1;entryX=0.375;entryY=1;entryDx=0;entryDy=0;entryPerimeter=0;fillColor=#76608a;strokeColor=#432D57;" edge="1" parent="1" target="Qzq5Au75-i9ZICAU_dAc-73">
          <mxGeometry relative="1" as="geometry">
            <mxPoint x="-200" y="140" as="sourcePoint" />
            <mxPoint x="-100" y="210" as="targetPoint" />
            <Array as="points">
              <mxPoint x="-200" y="180" />
              <mxPoint x="-110" y="180" />
            </Array>
          </mxGeometry>
        </mxCell>
        <mxCell id="Qzq5Au75-i9ZICAU_dAc-54" style="edgeStyle=orthogonalEdgeStyle;rounded=0;orthogonalLoop=1;jettySize=auto;html=1;entryX=0.375;entryY=1;entryDx=0;entryDy=0;entryPerimeter=0;fillColor=#76608a;strokeColor=#432D57;" edge="1" parent="1" target="Qzq5Au75-i9ZICAU_dAc-79">
          <mxGeometry relative="1" as="geometry">
            <mxPoint x="-200" y="140" as="sourcePoint" />
            <mxPoint x="100" y="210" as="targetPoint" />
            <Array as="points">
              <mxPoint x="-200" y="180" />
              <mxPoint x="90" y="180" />
            </Array>
          </mxGeometry>
        </mxCell>
        <mxCell id="Qzq5Au75-i9ZICAU_dAc-56" style="edgeStyle=orthogonalEdgeStyle;rounded=0;orthogonalLoop=1;jettySize=auto;html=1;exitX=0.625;exitY=1;exitDx=0;exitDy=0;exitPerimeter=0;entryX=0.375;entryY=1;entryDx=0;entryDy=0;entryPerimeter=0;fillColor=#76608a;strokeColor=#432D57;" edge="1" parent="1" source="Qzq5Au75-i9ZICAU_dAc-9" target="Qzq5Au75-i9ZICAU_dAc-91">
          <mxGeometry relative="1" as="geometry">
            <mxPoint x="-200" y="140" as="sourcePoint" />
            <mxPoint x="500" y="210" as="targetPoint" />
            <Array as="points">
              <mxPoint x="-200" y="180" />
              <mxPoint x="490" y="180" />
            </Array>
          </mxGeometry>
        </mxCell>
        <mxCell id="Qzq5Au75-i9ZICAU_dAc-71" style="edgeStyle=orthogonalEdgeStyle;rounded=0;orthogonalLoop=1;jettySize=auto;html=1;entryX=0.25;entryY=0;entryDx=0;entryDy=0;" edge="1" parent="1" source="Qzq5Au75-i9ZICAU_dAc-60" target="Qzq5Au75-i9ZICAU_dAc-1">
          <mxGeometry relative="1" as="geometry" />
        </mxCell>
        <mxCell id="Qzq5Au75-i9ZICAU_dAc-97" style="edgeStyle=orthogonalEdgeStyle;rounded=0;orthogonalLoop=1;jettySize=auto;html=1;exitX=0;exitY=0.5;exitDx=0;exitDy=0;entryX=1;entryY=0.5;entryDx=0;entryDy=0;" edge="1" parent="1" source="Qzq5Au75-i9ZICAU_dAc-60" target="Qzq5Au75-i9ZICAU_dAc-73">
          <mxGeometry relative="1" as="geometry" />
        </mxCell>
        <mxCell id="Qzq5Au75-i9ZICAU_dAc-60" value="" style="shape=trapezoid;perimeter=trapezoidPerimeter;whiteSpace=wrap;html=1;fixedSize=1;rotation=-180;fillColor=#ffe6cc;strokeColor=#d79b00;" vertex="1" parent="1">
          <mxGeometry x="-260" y="230" width="80" height="30" as="geometry" />
        </mxCell>
        <mxCell id="Qzq5Au75-i9ZICAU_dAc-61" value="2:1 Mux" style="text;html=1;align=center;verticalAlign=middle;whiteSpace=wrap;rounded=0;" vertex="1" parent="1">
          <mxGeometry x="-239.5" y="235" width="39" height="20" as="geometry" />
        </mxCell>
        <mxCell id="Qzq5Au75-i9ZICAU_dAc-72" style="edgeStyle=orthogonalEdgeStyle;rounded=0;orthogonalLoop=1;jettySize=auto;html=1;entryX=0.25;entryY=0;entryDx=0;entryDy=0;" edge="1" parent="1" source="Qzq5Au75-i9ZICAU_dAc-73" target="Qzq5Au75-i9ZICAU_dAc-2">
          <mxGeometry relative="1" as="geometry">
            <mxPoint x="-120" y="280" as="targetPoint" />
          </mxGeometry>
        </mxCell>
        <mxCell id="Qzq5Au75-i9ZICAU_dAc-98" style="edgeStyle=orthogonalEdgeStyle;rounded=0;orthogonalLoop=1;jettySize=auto;html=1;entryX=1;entryY=0.5;entryDx=0;entryDy=0;" edge="1" parent="1" source="Qzq5Au75-i9ZICAU_dAc-73" target="Qzq5Au75-i9ZICAU_dAc-76">
          <mxGeometry relative="1" as="geometry" />
        </mxCell>
        <mxCell id="Qzq5Au75-i9ZICAU_dAc-73" value="" style="shape=trapezoid;perimeter=trapezoidPerimeter;whiteSpace=wrap;html=1;fixedSize=1;rotation=-180;fillColor=#ffe6cc;strokeColor=#d79b00;opacity=60;" vertex="1" parent="1">
          <mxGeometry x="-160" y="230" width="80" height="30" as="geometry" />
        </mxCell>
        <mxCell id="Qzq5Au75-i9ZICAU_dAc-74" value="2:1 Mux" style="text;html=1;align=center;verticalAlign=middle;whiteSpace=wrap;rounded=0;" vertex="1" parent="1">
          <mxGeometry x="-139.5" y="235" width="39" height="20" as="geometry" />
        </mxCell>
        <mxCell id="Qzq5Au75-i9ZICAU_dAc-75" style="edgeStyle=orthogonalEdgeStyle;rounded=0;orthogonalLoop=1;jettySize=auto;html=1;entryX=0.25;entryY=0;entryDx=0;entryDy=0;" edge="1" parent="1" source="Qzq5Au75-i9ZICAU_dAc-76" target="Qzq5Au75-i9ZICAU_dAc-3">
          <mxGeometry relative="1" as="geometry">
            <mxPoint x="-20" y="280" as="targetPoint" />
          </mxGeometry>
        </mxCell>
        <mxCell id="Qzq5Au75-i9ZICAU_dAc-100" style="edgeStyle=orthogonalEdgeStyle;rounded=0;orthogonalLoop=1;jettySize=auto;html=1;" edge="1" parent="1" source="Qzq5Au75-i9ZICAU_dAc-76" target="Qzq5Au75-i9ZICAU_dAc-79">
          <mxGeometry relative="1" as="geometry" />
        </mxCell>
        <mxCell id="Qzq5Au75-i9ZICAU_dAc-76" value="" style="shape=trapezoid;perimeter=trapezoidPerimeter;whiteSpace=wrap;html=1;fixedSize=1;rotation=-180;fillColor=#ffe6cc;strokeColor=#d79b00;" vertex="1" parent="1">
          <mxGeometry x="-60" y="230" width="80" height="30" as="geometry" />
        </mxCell>
        <mxCell id="Qzq5Au75-i9ZICAU_dAc-77" value="2:1 Mux" style="text;html=1;align=center;verticalAlign=middle;whiteSpace=wrap;rounded=0;" vertex="1" parent="1">
          <mxGeometry x="-39.5" y="235" width="39" height="20" as="geometry" />
        </mxCell>
        <mxCell id="Qzq5Au75-i9ZICAU_dAc-78" style="edgeStyle=orthogonalEdgeStyle;rounded=0;orthogonalLoop=1;jettySize=auto;html=1;entryX=0.25;entryY=0;entryDx=0;entryDy=0;" edge="1" parent="1" source="Qzq5Au75-i9ZICAU_dAc-79" target="Qzq5Au75-i9ZICAU_dAc-4">
          <mxGeometry relative="1" as="geometry">
            <mxPoint x="80" y="280" as="targetPoint" />
          </mxGeometry>
        </mxCell>
        <mxCell id="Qzq5Au75-i9ZICAU_dAc-101" style="edgeStyle=orthogonalEdgeStyle;rounded=0;orthogonalLoop=1;jettySize=auto;html=1;" edge="1" parent="1" source="Qzq5Au75-i9ZICAU_dAc-79" target="Qzq5Au75-i9ZICAU_dAc-82">
          <mxGeometry relative="1" as="geometry" />
        </mxCell>
        <mxCell id="Qzq5Au75-i9ZICAU_dAc-79" value="" style="shape=trapezoid;perimeter=trapezoidPerimeter;whiteSpace=wrap;html=1;fixedSize=1;rotation=-180;opacity=60;fillColor=#ffe6cc;strokeColor=#d79b00;" vertex="1" parent="1">
          <mxGeometry x="40" y="230" width="80" height="30" as="geometry" />
        </mxCell>
        <mxCell id="Qzq5Au75-i9ZICAU_dAc-80" value="2:1 Mux" style="text;html=1;align=center;verticalAlign=middle;whiteSpace=wrap;rounded=0;" vertex="1" parent="1">
          <mxGeometry x="60.5" y="235" width="39" height="20" as="geometry" />
        </mxCell>
        <mxCell id="Qzq5Au75-i9ZICAU_dAc-81" style="edgeStyle=orthogonalEdgeStyle;rounded=0;orthogonalLoop=1;jettySize=auto;html=1;entryX=0.25;entryY=0;entryDx=0;entryDy=0;" edge="1" parent="1" source="Qzq5Au75-i9ZICAU_dAc-82" target="Qzq5Au75-i9ZICAU_dAc-5">
          <mxGeometry relative="1" as="geometry">
            <mxPoint x="180" y="280" as="targetPoint" />
          </mxGeometry>
        </mxCell>
        <mxCell id="Qzq5Au75-i9ZICAU_dAc-102" style="edgeStyle=orthogonalEdgeStyle;rounded=0;orthogonalLoop=1;jettySize=auto;html=1;exitX=0;exitY=0.5;exitDx=0;exitDy=0;" edge="1" parent="1" source="Qzq5Au75-i9ZICAU_dAc-82" target="Qzq5Au75-i9ZICAU_dAc-85">
          <mxGeometry relative="1" as="geometry" />
        </mxCell>
        <mxCell id="Qzq5Au75-i9ZICAU_dAc-82" value="" style="shape=trapezoid;perimeter=trapezoidPerimeter;whiteSpace=wrap;html=1;fixedSize=1;rotation=-180;fillColor=#ffe6cc;strokeColor=#d79b00;" vertex="1" parent="1">
          <mxGeometry x="140" y="230" width="80" height="30" as="geometry" />
        </mxCell>
        <mxCell id="Qzq5Au75-i9ZICAU_dAc-83" value="2:1 Mux" style="text;html=1;align=center;verticalAlign=middle;whiteSpace=wrap;rounded=0;" vertex="1" parent="1">
          <mxGeometry x="160.5" y="235" width="39" height="20" as="geometry" />
        </mxCell>
        <mxCell id="Qzq5Au75-i9ZICAU_dAc-84" style="edgeStyle=orthogonalEdgeStyle;rounded=0;orthogonalLoop=1;jettySize=auto;html=1;entryX=0.25;entryY=0;entryDx=0;entryDy=0;" edge="1" parent="1" source="Qzq5Au75-i9ZICAU_dAc-85" target="Qzq5Au75-i9ZICAU_dAc-6">
          <mxGeometry relative="1" as="geometry">
            <mxPoint x="280" y="280" as="targetPoint" />
          </mxGeometry>
        </mxCell>
        <mxCell id="Qzq5Au75-i9ZICAU_dAc-103" style="edgeStyle=orthogonalEdgeStyle;rounded=0;orthogonalLoop=1;jettySize=auto;html=1;exitX=0;exitY=0.5;exitDx=0;exitDy=0;" edge="1" parent="1" source="Qzq5Au75-i9ZICAU_dAc-85" target="Qzq5Au75-i9ZICAU_dAc-88">
          <mxGeometry relative="1" as="geometry" />
        </mxCell>
        <mxCell id="Qzq5Au75-i9ZICAU_dAc-85" value="" style="shape=trapezoid;perimeter=trapezoidPerimeter;whiteSpace=wrap;html=1;fixedSize=1;rotation=-180;opacity=60;fillColor=#ffe6cc;strokeColor=#d79b00;" vertex="1" parent="1">
          <mxGeometry x="240" y="230" width="80" height="30" as="geometry" />
        </mxCell>
        <mxCell id="Qzq5Au75-i9ZICAU_dAc-86" value="2:1 Mux" style="text;html=1;align=center;verticalAlign=middle;whiteSpace=wrap;rounded=0;" vertex="1" parent="1">
          <mxGeometry x="260.5" y="235" width="39" height="20" as="geometry" />
        </mxCell>
        <mxCell id="Qzq5Au75-i9ZICAU_dAc-87" style="edgeStyle=orthogonalEdgeStyle;rounded=0;orthogonalLoop=1;jettySize=auto;html=1;entryX=0.25;entryY=0;entryDx=0;entryDy=0;" edge="1" parent="1" source="Qzq5Au75-i9ZICAU_dAc-88" target="Qzq5Au75-i9ZICAU_dAc-7">
          <mxGeometry relative="1" as="geometry">
            <mxPoint x="380" y="280" as="targetPoint" />
          </mxGeometry>
        </mxCell>
        <mxCell id="Qzq5Au75-i9ZICAU_dAc-104" style="edgeStyle=orthogonalEdgeStyle;rounded=0;orthogonalLoop=1;jettySize=auto;html=1;exitX=0;exitY=0.5;exitDx=0;exitDy=0;" edge="1" parent="1" source="Qzq5Au75-i9ZICAU_dAc-88" target="Qzq5Au75-i9ZICAU_dAc-91">
          <mxGeometry relative="1" as="geometry" />
        </mxCell>
        <mxCell id="Qzq5Au75-i9ZICAU_dAc-88" value="" style="shape=trapezoid;perimeter=trapezoidPerimeter;whiteSpace=wrap;html=1;fixedSize=1;rotation=-180;fillColor=#ffe6cc;strokeColor=#d79b00;" vertex="1" parent="1">
          <mxGeometry x="340" y="230" width="80" height="30" as="geometry" />
        </mxCell>
        <mxCell id="Qzq5Au75-i9ZICAU_dAc-89" value="2:1 Mux" style="text;html=1;align=center;verticalAlign=middle;whiteSpace=wrap;rounded=0;" vertex="1" parent="1">
          <mxGeometry x="360.5" y="235" width="39" height="20" as="geometry" />
        </mxCell>
        <mxCell id="Qzq5Au75-i9ZICAU_dAc-90" style="edgeStyle=orthogonalEdgeStyle;rounded=0;orthogonalLoop=1;jettySize=auto;html=1;entryX=0.25;entryY=0;entryDx=0;entryDy=0;" edge="1" parent="1" source="Qzq5Au75-i9ZICAU_dAc-91" target="Qzq5Au75-i9ZICAU_dAc-8">
          <mxGeometry relative="1" as="geometry">
            <mxPoint x="480" y="280" as="targetPoint" />
          </mxGeometry>
        </mxCell>
        <mxCell id="Qzq5Au75-i9ZICAU_dAc-91" value="" style="shape=trapezoid;perimeter=trapezoidPerimeter;whiteSpace=wrap;html=1;fixedSize=1;rotation=-180;opacity=60;fillColor=#ffe6cc;strokeColor=#d79b00;" vertex="1" parent="1">
          <mxGeometry x="440" y="230" width="80" height="30" as="geometry" />
        </mxCell>
        <mxCell id="Qzq5Au75-i9ZICAU_dAc-92" value="2:1 Mux" style="text;html=1;align=center;verticalAlign=middle;whiteSpace=wrap;rounded=0;" vertex="1" parent="1">
          <mxGeometry x="460.5" y="235" width="39" height="20" as="geometry" />
        </mxCell>
        <mxCell id="Qzq5Au75-i9ZICAU_dAc-93" style="edgeStyle=orthogonalEdgeStyle;rounded=0;orthogonalLoop=1;jettySize=auto;html=1;entryX=0.374;entryY=1.087;entryDx=0;entryDy=0;entryPerimeter=0;fillColor=#76608a;strokeColor=#432D57;" edge="1" parent="1" source="Qzq5Au75-i9ZICAU_dAc-9" target="Qzq5Au75-i9ZICAU_dAc-85">
          <mxGeometry relative="1" as="geometry">
            <Array as="points">
              <mxPoint x="-200" y="180" />
              <mxPoint x="290" y="180" />
            </Array>
          </mxGeometry>
        </mxCell>
        <mxCell id="Qzq5Au75-i9ZICAU_dAc-94" value="&lt;span style=&quot;font-size: 6px;&quot;&gt;Port3&lt;/span&gt;" style="edgeLabel;html=1;align=center;verticalAlign=middle;resizable=0;points=[];" vertex="1" connectable="0" parent="Qzq5Au75-i9ZICAU_dAc-93">
          <mxGeometry x="-0.9411" y="-2" relative="1" as="geometry">
            <mxPoint x="3" y="4" as="offset" />
          </mxGeometry>
        </mxCell>
        <mxCell id="Qzq5Au75-i9ZICAU_dAc-96" value="" style="endArrow=classic;html=1;rounded=0;entryX=1;entryY=0.5;entryDx=0;entryDy=0;exitX=1;exitY=0.5;exitDx=0;exitDy=0;" edge="1" parent="1" target="Qzq5Au75-i9ZICAU_dAc-60">
          <mxGeometry width="50" height="50" relative="1" as="geometry">
            <mxPoint x="-369.5" y="245" as="sourcePoint" />
            <mxPoint x="-320" y="240" as="targetPoint" />
          </mxGeometry>
        </mxCell>
        <mxCell id="Qzq5Au75-i9ZICAU_dAc-105" value="&lt;font style=&quot;font-size: 9px;&quot;&gt;Search Mem&amp;nbsp;&lt;/font&gt;&lt;div&gt;&lt;font style=&quot;font-size: 9px;&quot;&gt;Port Select&lt;/font&gt;&lt;/div&gt;" style="edgeLabel;html=1;align=center;verticalAlign=middle;resizable=0;points=[];" vertex="1" connectable="0" parent="Qzq5Au75-i9ZICAU_dAc-96">
          <mxGeometry x="-0.1076" y="2" relative="1" as="geometry">
            <mxPoint as="offset" />
          </mxGeometry>
        </mxCell>
        <mxCell id="Qzq5Au75-i9ZICAU_dAc-116" style="edgeStyle=orthogonalEdgeStyle;rounded=0;orthogonalLoop=1;jettySize=auto;html=1;entryX=0.75;entryY=0;entryDx=0;entryDy=0;fillColor=#d80073;strokeColor=#A50040;" edge="1" parent="1" source="Qzq5Au75-i9ZICAU_dAc-112">
          <mxGeometry relative="1" as="geometry">
            <mxPoint x="-169.5" y="300" as="targetPoint" />
            <Array as="points">
              <mxPoint x="-100" y="120" />
              <mxPoint x="-170" y="120" />
              <mxPoint x="-170" y="280" />
            </Array>
          </mxGeometry>
        </mxCell>
        <mxCell id="Qzq5Au75-i9ZICAU_dAc-117" style="edgeStyle=orthogonalEdgeStyle;rounded=0;orthogonalLoop=1;jettySize=auto;html=1;fillColor=#d80073;strokeColor=#A50040;" edge="1" parent="1" source="Qzq5Au75-i9ZICAU_dAc-112">
          <mxGeometry relative="1" as="geometry">
            <mxPoint x="-70" y="300" as="targetPoint" />
            <Array as="points">
              <mxPoint x="-100" y="120" />
              <mxPoint x="-70" y="120" />
            </Array>
          </mxGeometry>
        </mxCell>
        <mxCell id="Qzq5Au75-i9ZICAU_dAc-169" style="edgeStyle=orthogonalEdgeStyle;rounded=0;orthogonalLoop=1;jettySize=auto;html=1;entryX=-0.061;entryY=0.233;entryDx=0;entryDy=0;fillColor=#d80073;strokeColor=#A50040;entryPerimeter=0;" edge="1" parent="1" source="Qzq5Au75-i9ZICAU_dAc-112" target="Qzq5Au75-i9ZICAU_dAc-155">
          <mxGeometry relative="1" as="geometry">
            <Array as="points">
              <mxPoint x="-100" y="120" />
              <mxPoint x="-20" y="120" />
              <mxPoint x="-20" y="90" />
              <mxPoint y="90" />
            </Array>
          </mxGeometry>
        </mxCell>
        <mxCell id="Qzq5Au75-i9ZICAU_dAc-112" value="Curr.&lt;br&gt;Mem" style="rounded=0;whiteSpace=wrap;html=1;fillColor=#dae8fc;strokeColor=#6c8ebf;" vertex="1" parent="1">
          <mxGeometry x="-140" y="50" width="80" height="60" as="geometry" />
        </mxCell>
        <mxCell id="Qzq5Au75-i9ZICAU_dAc-113" style="edgeStyle=orthogonalEdgeStyle;rounded=0;orthogonalLoop=1;jettySize=auto;html=1;entryX=0.375;entryY=1;entryDx=0;entryDy=0;entryPerimeter=0;fillColor=#fa6800;strokeColor=#C73500;" edge="1" parent="1" source="Qzq5Au75-i9ZICAU_dAc-9" target="Qzq5Au75-i9ZICAU_dAc-60">
          <mxGeometry relative="1" as="geometry" />
        </mxCell>
        <mxCell id="Qzq5Au75-i9ZICAU_dAc-132" value="&lt;font style=&quot;font-size: 6px;&quot;&gt;Port2&lt;/font&gt;" style="edgeLabel;html=1;align=center;verticalAlign=middle;resizable=0;points=[];" vertex="1" connectable="0" parent="Qzq5Au75-i9ZICAU_dAc-113">
          <mxGeometry x="-0.7981" y="-1" relative="1" as="geometry">
            <mxPoint as="offset" />
          </mxGeometry>
        </mxCell>
        <mxCell id="Qzq5Au75-i9ZICAU_dAc-114" style="edgeStyle=orthogonalEdgeStyle;rounded=0;orthogonalLoop=1;jettySize=auto;html=1;entryX=0.625;entryY=1;entryDx=0;entryDy=0;entryPerimeter=0;fillColor=#0050ef;strokeColor=#001DBC;" edge="1" parent="1" source="Qzq5Au75-i9ZICAU_dAc-9" target="Qzq5Au75-i9ZICAU_dAc-60">
          <mxGeometry relative="1" as="geometry">
            <Array as="points">
              <mxPoint x="-230" y="140" />
              <mxPoint x="-230" y="140" />
            </Array>
          </mxGeometry>
        </mxCell>
        <mxCell id="Qzq5Au75-i9ZICAU_dAc-131" value="&lt;font style=&quot;font-size: 6px;&quot;&gt;Port0&lt;/font&gt;" style="edgeLabel;html=1;align=center;verticalAlign=middle;resizable=0;points=[];" vertex="1" connectable="0" parent="Qzq5Au75-i9ZICAU_dAc-114">
          <mxGeometry x="-0.8259" y="1" relative="1" as="geometry">
            <mxPoint x="-2" as="offset" />
          </mxGeometry>
        </mxCell>
        <mxCell id="Qzq5Au75-i9ZICAU_dAc-135" style="edgeStyle=orthogonalEdgeStyle;rounded=0;orthogonalLoop=1;jettySize=auto;html=1;entryX=0;entryY=0.75;entryDx=0;entryDy=0;" edge="1" parent="1" target="Qzq5Au75-i9ZICAU_dAc-9">
          <mxGeometry relative="1" as="geometry">
            <mxPoint x="-399.97142857142853" y="204.75" as="sourcePoint" />
            <Array as="points">
              <mxPoint x="-400" y="95" />
            </Array>
          </mxGeometry>
        </mxCell>
        <mxCell id="Qzq5Au75-i9ZICAU_dAc-136" value="4-Ports Search&amp;nbsp;&lt;div&gt;Read Addr.&lt;/div&gt;" style="edgeLabel;html=1;align=center;verticalAlign=middle;resizable=0;points=[];" vertex="1" connectable="0" parent="Qzq5Au75-i9ZICAU_dAc-135">
          <mxGeometry x="0.2907" y="1" relative="1" as="geometry">
            <mxPoint as="offset" />
          </mxGeometry>
        </mxCell>
        <mxCell id="Qzq5Au75-i9ZICAU_dAc-137" style="edgeStyle=orthogonalEdgeStyle;rounded=0;orthogonalLoop=1;jettySize=auto;html=1;entryX=0;entryY=0.75;entryDx=0;entryDy=0;" edge="1" parent="1" target="Qzq5Au75-i9ZICAU_dAc-112">
          <mxGeometry relative="1" as="geometry">
            <mxPoint x="-419.97142857142853" y="204.75" as="sourcePoint" />
            <Array as="points">
              <mxPoint x="-420" y="40" />
              <mxPoint x="-160" y="40" />
              <mxPoint x="-160" y="95" />
            </Array>
          </mxGeometry>
        </mxCell>
        <mxCell id="Qzq5Au75-i9ZICAU_dAc-139" value="One Port Read&lt;div&gt;Curr. Addr&lt;/div&gt;" style="edgeLabel;html=1;align=center;verticalAlign=middle;resizable=0;points=[];" vertex="1" connectable="0" parent="Qzq5Au75-i9ZICAU_dAc-137">
          <mxGeometry x="0.0051" y="1" relative="1" as="geometry">
            <mxPoint as="offset" />
          </mxGeometry>
        </mxCell>
        <mxCell id="Qzq5Au75-i9ZICAU_dAc-151" style="edgeStyle=orthogonalEdgeStyle;rounded=0;orthogonalLoop=1;jettySize=auto;html=1;" edge="1" parent="1" source="Qzq5Au75-i9ZICAU_dAc-140">
          <mxGeometry relative="1" as="geometry">
            <mxPoint x="151" y="580" as="targetPoint" />
          </mxGeometry>
        </mxCell>
        <mxCell id="Qzq5Au75-i9ZICAU_dAc-154" value="Min SAD" style="edgeLabel;html=1;align=center;verticalAlign=middle;resizable=0;points=[];" vertex="1" connectable="0" parent="Qzq5Au75-i9ZICAU_dAc-151">
          <mxGeometry x="0.0407" relative="1" as="geometry">
            <mxPoint as="offset" />
          </mxGeometry>
        </mxCell>
        <mxCell id="Qzq5Au75-i9ZICAU_dAc-140" value="Comparator" style="rounded=0;whiteSpace=wrap;html=1;fillColor=#f5f5f5;strokeColor=#666666;fontColor=#333333;" vertex="1" parent="1">
          <mxGeometry x="-238.5" y="490" width="779" height="50" as="geometry" />
        </mxCell>
        <mxCell id="Qzq5Au75-i9ZICAU_dAc-152" style="edgeStyle=orthogonalEdgeStyle;rounded=0;orthogonalLoop=1;jettySize=auto;html=1;" edge="1" parent="1" source="Qzq5Au75-i9ZICAU_dAc-141">
          <mxGeometry relative="1" as="geometry">
            <mxPoint x="-405" y="580" as="targetPoint" />
          </mxGeometry>
        </mxCell>
        <mxCell id="Qzq5Au75-i9ZICAU_dAc-153" value="Min SAD&amp;nbsp;&lt;div&gt;Reference Point Addr.&lt;/div&gt;" style="edgeLabel;html=1;align=center;verticalAlign=middle;resizable=0;points=[];" vertex="1" connectable="0" parent="Qzq5Au75-i9ZICAU_dAc-152">
          <mxGeometry x="-0.0539" y="-2" relative="1" as="geometry">
            <mxPoint as="offset" />
          </mxGeometry>
        </mxCell>
        <mxCell id="Qzq5Au75-i9ZICAU_dAc-141" value="Controller" style="rounded=0;whiteSpace=wrap;html=1;fillColor=#d5e8d4;strokeColor=#82b366;" vertex="1" parent="1">
          <mxGeometry x="-440" y="200" width="70" height="90" as="geometry" />
        </mxCell>
        <mxCell id="Qzq5Au75-i9ZICAU_dAc-142" style="edgeStyle=orthogonalEdgeStyle;rounded=0;orthogonalLoop=1;jettySize=auto;html=1;entryX=0.05;entryY=-0.006;entryDx=0;entryDy=0;entryPerimeter=0;" edge="1" parent="1" source="Qzq5Au75-i9ZICAU_dAc-1" target="Qzq5Au75-i9ZICAU_dAc-140">
          <mxGeometry relative="1" as="geometry" />
        </mxCell>
        <mxCell id="Qzq5Au75-i9ZICAU_dAc-143" style="edgeStyle=orthogonalEdgeStyle;rounded=0;orthogonalLoop=1;jettySize=auto;html=1;entryX=0.177;entryY=-0.051;entryDx=0;entryDy=0;entryPerimeter=0;" edge="1" parent="1" source="Qzq5Au75-i9ZICAU_dAc-2" target="Qzq5Au75-i9ZICAU_dAc-140">
          <mxGeometry relative="1" as="geometry" />
        </mxCell>
        <mxCell id="Qzq5Au75-i9ZICAU_dAc-144" style="edgeStyle=orthogonalEdgeStyle;rounded=0;orthogonalLoop=1;jettySize=auto;html=1;entryX=0.307;entryY=0;entryDx=0;entryDy=0;entryPerimeter=0;" edge="1" parent="1" source="Qzq5Au75-i9ZICAU_dAc-3" target="Qzq5Au75-i9ZICAU_dAc-140">
          <mxGeometry relative="1" as="geometry" />
        </mxCell>
        <mxCell id="Qzq5Au75-i9ZICAU_dAc-145" style="edgeStyle=orthogonalEdgeStyle;rounded=0;orthogonalLoop=1;jettySize=auto;html=1;entryX=0.435;entryY=-0.063;entryDx=0;entryDy=0;entryPerimeter=0;" edge="1" parent="1" source="Qzq5Au75-i9ZICAU_dAc-4" target="Qzq5Au75-i9ZICAU_dAc-140">
          <mxGeometry relative="1" as="geometry" />
        </mxCell>
        <mxCell id="Qzq5Au75-i9ZICAU_dAc-146" style="edgeStyle=orthogonalEdgeStyle;rounded=0;orthogonalLoop=1;jettySize=auto;html=1;entryX=0.563;entryY=-0.017;entryDx=0;entryDy=0;entryPerimeter=0;" edge="1" parent="1" source="Qzq5Au75-i9ZICAU_dAc-5" target="Qzq5Au75-i9ZICAU_dAc-140">
          <mxGeometry relative="1" as="geometry" />
        </mxCell>
        <mxCell id="Qzq5Au75-i9ZICAU_dAc-148" style="edgeStyle=orthogonalEdgeStyle;rounded=0;orthogonalLoop=1;jettySize=auto;html=1;entryX=0.692;entryY=0;entryDx=0;entryDy=0;entryPerimeter=0;" edge="1" parent="1" source="Qzq5Au75-i9ZICAU_dAc-6" target="Qzq5Au75-i9ZICAU_dAc-140">
          <mxGeometry relative="1" as="geometry" />
        </mxCell>
        <mxCell id="Qzq5Au75-i9ZICAU_dAc-149" style="edgeStyle=orthogonalEdgeStyle;rounded=0;orthogonalLoop=1;jettySize=auto;html=1;entryX=0.82;entryY=-0.032;entryDx=0;entryDy=0;entryPerimeter=0;" edge="1" parent="1" source="Qzq5Au75-i9ZICAU_dAc-7" target="Qzq5Au75-i9ZICAU_dAc-140">
          <mxGeometry relative="1" as="geometry" />
        </mxCell>
        <mxCell id="Qzq5Au75-i9ZICAU_dAc-150" style="edgeStyle=orthogonalEdgeStyle;rounded=0;orthogonalLoop=1;jettySize=auto;html=1;entryX=0.949;entryY=-0.041;entryDx=0;entryDy=0;entryPerimeter=0;" edge="1" parent="1" source="Qzq5Au75-i9ZICAU_dAc-8" target="Qzq5Au75-i9ZICAU_dAc-140">
          <mxGeometry relative="1" as="geometry" />
        </mxCell>
        <mxCell id="Qzq5Au75-i9ZICAU_dAc-170" style="edgeStyle=orthogonalEdgeStyle;rounded=0;orthogonalLoop=1;jettySize=auto;html=1;entryX=0;entryY=0.5;entryDx=0;entryDy=0;fillColor=#d80073;strokeColor=#A50040;" edge="1" parent="1" source="Qzq5Au75-i9ZICAU_dAc-155" target="Qzq5Au75-i9ZICAU_dAc-159">
          <mxGeometry relative="1" as="geometry" />
        </mxCell>
        <mxCell id="Qzq5Au75-i9ZICAU_dAc-155" value="&lt;font style=&quot;font-size: 9px;&quot;&gt;ref&lt;br&gt;data&lt;/font&gt;" style="whiteSpace=wrap;html=1;aspect=fixed;dashed=1;dashPattern=1 1;fillColor=#fff2cc;strokeColor=#d6b656;" vertex="1" parent="1">
          <mxGeometry x="10" y="80" width="40" height="40" as="geometry" />
        </mxCell>
        <mxCell id="Qzq5Au75-i9ZICAU_dAc-158" value="" style="triangle;whiteSpace=wrap;html=1;fillColor=#ffe6cc;strokeColor=#d79b00;" vertex="1" parent="1">
          <mxGeometry x="10" y="110" width="10" height="10" as="geometry" />
        </mxCell>
        <mxCell id="Qzq5Au75-i9ZICAU_dAc-177" style="edgeStyle=orthogonalEdgeStyle;rounded=0;orthogonalLoop=1;jettySize=auto;html=1;entryX=0;entryY=0.5;entryDx=0;entryDy=0;fillColor=#0050ef;strokeColor=#001DBC;dashed=1;" edge="1" parent="1" source="Qzq5Au75-i9ZICAU_dAc-159" target="Qzq5Au75-i9ZICAU_dAc-161">
          <mxGeometry relative="1" as="geometry" />
        </mxCell>
        <mxCell id="Qzq5Au75-i9ZICAU_dAc-159" value="&lt;font style=&quot;font-size: 9px;&quot;&gt;ref&lt;br&gt;data&lt;/font&gt;" style="whiteSpace=wrap;html=1;aspect=fixed;dashed=1;dashPattern=1 1;fillColor=#fff2cc;strokeColor=#d6b656;" vertex="1" parent="1">
          <mxGeometry x="70" y="80" width="40" height="40" as="geometry" />
        </mxCell>
        <mxCell id="Qzq5Au75-i9ZICAU_dAc-160" value="" style="triangle;whiteSpace=wrap;html=1;fillColor=#ffe6cc;strokeColor=#d79b00;" vertex="1" parent="1">
          <mxGeometry x="70" y="110" width="10" height="10" as="geometry" />
        </mxCell>
        <mxCell id="Qzq5Au75-i9ZICAU_dAc-172" style="edgeStyle=orthogonalEdgeStyle;rounded=0;orthogonalLoop=1;jettySize=auto;html=1;entryX=0;entryY=0.5;entryDx=0;entryDy=0;fillColor=#d80073;strokeColor=#A50040;" edge="1" parent="1" source="Qzq5Au75-i9ZICAU_dAc-161" target="Qzq5Au75-i9ZICAU_dAc-163">
          <mxGeometry relative="1" as="geometry" />
        </mxCell>
        <mxCell id="Qzq5Au75-i9ZICAU_dAc-161" value="&lt;font style=&quot;font-size: 9px;&quot;&gt;ref&lt;br&gt;data&lt;/font&gt;" style="whiteSpace=wrap;html=1;aspect=fixed;dashed=1;dashPattern=1 1;fillColor=#fff2cc;strokeColor=#d6b656;" vertex="1" parent="1">
          <mxGeometry x="160.5" y="80" width="40" height="40" as="geometry" />
        </mxCell>
        <mxCell id="Qzq5Au75-i9ZICAU_dAc-162" value="" style="triangle;whiteSpace=wrap;html=1;fillColor=#ffe6cc;strokeColor=#d79b00;" vertex="1" parent="1">
          <mxGeometry x="160.5" y="110" width="10" height="10" as="geometry" />
        </mxCell>
        <mxCell id="Qzq5Au75-i9ZICAU_dAc-173" style="edgeStyle=orthogonalEdgeStyle;rounded=0;orthogonalLoop=1;jettySize=auto;html=1;entryX=0;entryY=0.5;entryDx=0;entryDy=0;fillColor=#0050ef;strokeColor=#001DBC;dashed=1;" edge="1" parent="1" source="Qzq5Au75-i9ZICAU_dAc-163" target="Qzq5Au75-i9ZICAU_dAc-165">
          <mxGeometry relative="1" as="geometry" />
        </mxCell>
        <mxCell id="Qzq5Au75-i9ZICAU_dAc-163" value="&lt;font style=&quot;font-size: 9px;&quot;&gt;ref&lt;br&gt;data&lt;/font&gt;" style="whiteSpace=wrap;html=1;aspect=fixed;dashed=1;dashPattern=1 1;fillColor=#fff2cc;strokeColor=#d6b656;" vertex="1" parent="1">
          <mxGeometry x="220.5" y="80" width="40" height="40" as="geometry" />
        </mxCell>
        <mxCell id="Qzq5Au75-i9ZICAU_dAc-164" value="" style="triangle;whiteSpace=wrap;html=1;fillColor=#ffe6cc;strokeColor=#d79b00;" vertex="1" parent="1">
          <mxGeometry x="220.5" y="110" width="10" height="10" as="geometry" />
        </mxCell>
        <mxCell id="Qzq5Au75-i9ZICAU_dAc-174" style="edgeStyle=orthogonalEdgeStyle;rounded=0;orthogonalLoop=1;jettySize=auto;html=1;entryX=0;entryY=0.5;entryDx=0;entryDy=0;fillColor=#d80073;strokeColor=#A50040;" edge="1" parent="1" source="Qzq5Au75-i9ZICAU_dAc-165" target="Qzq5Au75-i9ZICAU_dAc-167">
          <mxGeometry relative="1" as="geometry" />
        </mxCell>
        <mxCell id="Qzq5Au75-i9ZICAU_dAc-165" value="&lt;font style=&quot;font-size: 9px;&quot;&gt;ref&lt;br&gt;data&lt;/font&gt;" style="whiteSpace=wrap;html=1;aspect=fixed;dashed=1;dashPattern=1 1;fillColor=#fff2cc;strokeColor=#d6b656;" vertex="1" parent="1">
          <mxGeometry x="299.5" y="80" width="40" height="40" as="geometry" />
        </mxCell>
        <mxCell id="Qzq5Au75-i9ZICAU_dAc-166" value="" style="triangle;whiteSpace=wrap;html=1;fillColor=#ffe6cc;strokeColor=#d79b00;" vertex="1" parent="1">
          <mxGeometry x="299.5" y="110" width="10" height="10" as="geometry" />
        </mxCell>
        <mxCell id="Qzq5Au75-i9ZICAU_dAc-167" value="&lt;font style=&quot;font-size: 9px;&quot;&gt;ref&lt;br&gt;data&lt;/font&gt;" style="whiteSpace=wrap;html=1;aspect=fixed;dashed=1;dashPattern=1 1;fillColor=#fff2cc;strokeColor=#d6b656;" vertex="1" parent="1">
          <mxGeometry x="359.5" y="80" width="40" height="40" as="geometry" />
        </mxCell>
        <mxCell id="Qzq5Au75-i9ZICAU_dAc-168" value="" style="triangle;whiteSpace=wrap;html=1;fillColor=#ffe6cc;strokeColor=#d79b00;" vertex="1" parent="1">
          <mxGeometry x="359.5" y="110" width="10" height="10" as="geometry" />
        </mxCell>
        <mxCell id="Qzq5Au75-i9ZICAU_dAc-178" style="edgeStyle=orthogonalEdgeStyle;rounded=0;orthogonalLoop=1;jettySize=auto;html=1;entryX=0.827;entryY=-0.019;entryDx=0;entryDy=0;entryPerimeter=0;fillColor=#0050ef;strokeColor=#001DBC;dashed=1;" edge="1" parent="1" source="Qzq5Au75-i9ZICAU_dAc-159" target="Qzq5Au75-i9ZICAU_dAc-3">
          <mxGeometry relative="1" as="geometry">
            <Array as="points">
              <mxPoint x="130" y="100" />
              <mxPoint x="130" y="140" />
              <mxPoint x="27" y="140" />
            </Array>
          </mxGeometry>
        </mxCell>
        <mxCell id="Qzq5Au75-i9ZICAU_dAc-179" style="edgeStyle=orthogonalEdgeStyle;rounded=0;orthogonalLoop=1;jettySize=auto;html=1;entryX=0.869;entryY=-0.015;entryDx=0;entryDy=0;entryPerimeter=0;fillColor=#0050ef;strokeColor=#001DBC;dashed=1;" edge="1" parent="1" source="Qzq5Au75-i9ZICAU_dAc-159" target="Qzq5Au75-i9ZICAU_dAc-4">
          <mxGeometry relative="1" as="geometry">
            <Array as="points">
              <mxPoint x="130" y="100" />
            </Array>
          </mxGeometry>
        </mxCell>
        <mxCell id="Qzq5Au75-i9ZICAU_dAc-183" style="edgeStyle=orthogonalEdgeStyle;rounded=0;orthogonalLoop=1;jettySize=auto;html=1;entryX=0.869;entryY=0;entryDx=0;entryDy=0;entryPerimeter=0;fillColor=#0050ef;strokeColor=#001DBC;dashed=1;" edge="1" parent="1" source="Qzq5Au75-i9ZICAU_dAc-163" target="Qzq5Au75-i9ZICAU_dAc-6">
          <mxGeometry relative="1" as="geometry">
            <Array as="points">
              <mxPoint x="280" y="100" />
              <mxPoint x="280" y="140" />
              <mxPoint x="330" y="140" />
            </Array>
          </mxGeometry>
        </mxCell>
        <mxCell id="Qzq5Au75-i9ZICAU_dAc-184" style="edgeStyle=orthogonalEdgeStyle;rounded=0;orthogonalLoop=1;jettySize=auto;html=1;entryX=0.869;entryY=0;entryDx=0;entryDy=0;entryPerimeter=0;fillColor=#0050ef;strokeColor=#001DBC;dashed=1;" edge="1" parent="1" source="Qzq5Au75-i9ZICAU_dAc-163" target="Qzq5Au75-i9ZICAU_dAc-5">
          <mxGeometry relative="1" as="geometry">
            <Array as="points">
              <mxPoint x="280" y="100" />
              <mxPoint x="280" y="140" />
              <mxPoint x="230" y="140" />
            </Array>
          </mxGeometry>
        </mxCell>
        <mxCell id="Qzq5Au75-i9ZICAU_dAc-186" style="edgeStyle=orthogonalEdgeStyle;rounded=0;orthogonalLoop=1;jettySize=auto;html=1;entryX=0.869;entryY=0;entryDx=0;entryDy=0;entryPerimeter=0;fillColor=#0050ef;strokeColor=#001DBC;dashed=1;" edge="1" parent="1" source="Qzq5Au75-i9ZICAU_dAc-167" target="Qzq5Au75-i9ZICAU_dAc-7">
          <mxGeometry relative="1" as="geometry">
            <Array as="points">
              <mxPoint x="430" y="100" />
            </Array>
          </mxGeometry>
        </mxCell>
        <mxCell id="Qzq5Au75-i9ZICAU_dAc-187" style="edgeStyle=orthogonalEdgeStyle;rounded=0;orthogonalLoop=1;jettySize=auto;html=1;entryX=0.869;entryY=0;entryDx=0;entryDy=0;entryPerimeter=0;fillColor=#0050ef;strokeColor=#001DBC;dashed=1;" edge="1" parent="1" source="Qzq5Au75-i9ZICAU_dAc-167" target="Qzq5Au75-i9ZICAU_dAc-8">
          <mxGeometry relative="1" as="geometry" />
        </mxCell>
      </root>
    </mxGraphModel>
  </diagram>
</mxfile>
